PathFileType	4	(x/y/z)	S01_P20_T21
DataRate	CameraRate	NumFrames	NumMarkers	Units	OrigDataRate	OrigDataStartFrame	OrigNumFrames
240	240	10	51	mm	240	48	381
Frame#	Time	Sternum			R.Acromium			L.Acromium			Top.Head			R.ASIS			L.ASIS			R.PSIS			L.PSIS			R.Great.Tro			L.Great.Tro			R.Iliac.Crest			L.Iliac.Crest			V.Sacral			R.Thigh.Upper.Post			R.Thigh.Lower.Ant			R.Thigh.Lower.Post			R.Thigh.Upper.Ant			R.Knee.Lat			R.Knee.Med			R.Shank.Upper.Post			R.Shank.Lower.Ant			R.Shank.Lower.Post			R.Shank.Upper.Ant			R.Ankle.Lat			R.Ankle.Med			R.Heel.Upper			R.Heel.Med			R.Heel.Lat			R.Toe.Lat			R.Toe.Med			R.Toe.Tip			L.Thigh.Upper.Post			L.Thigh.Lower.Ant			L.Thigh.Lower.Post			L.Thigh.Upper.Ant			L.Knee.Lat			L.Knee.Med			L.Shank.Upper.Post			L.Shank.Lower.Ant			L.Shank.Lower.Post			L.Shank.Upper.Ant			L.Ankle.Lat			L.Ankle.Med			L.Heel.Upper			L.Heel.Med			L.Heel.Lat			L.Toe.Lat			L.Toe.Med			L.Toe.Tip			Cervical.Spine			Back			
		X1	Y1	Z1	X2	Y2	Z2	X3	Y3	Z3	X4	Y4	Z4	X5	Y5	Z5	X6	Y6	Z6	X7	Y7	Z7	X8	Y8	Z8	X9	Y9	Z9	X10	Y10	Z10	X11	Y11	Z11	X12	Y12	Z12	X13	Y13	Z13	X14	Y14	Z14	X15	Y15	Z15	X16	Y16	Z16	X17	Y17	Z17	X18	Y18	Z18	X19	Y19	Z19	X20	Y20	Z20	X21	Y21	Z21	X22	Y22	Z22	X23	Y23	Z23	X24	Y24	Z24	X25	Y25	Z25	X26	Y26	Z26	X27	Y27	Z27	X28	Y28	Z28	X29	Y29	Z29	X30	Y30	Z30	X31	Y31	Z31	X32	Y32	Z32	X33	Y33	Z33	X34	Y34	Z34	X35	Y35	Z35	X36	Y36	Z36	X37	Y37	Z37	X38	Y38	Z38	X39	Y39	Z39	X40	Y40	Z40	X41	Y41	Z41	X42	Y42	Z42	X43	Y43	Z43	X44	Y44	Z44	X45	Y45	Z45	X46	Y46	Z46	X47	Y47	Z47	X48	Y48	Z48	X49	Y49	Z49	X50	Y50	Z50	X51	Y51	Z51	

48	0.19583	-1099.8	1267.1	262.58	-1202.8	1524.9	441.61	-1242.7	1537.9	111.47	-1201.5	1850.3	266.37	-1160.8	1014.1	433.55	-1146.3	1017.2	168.3	-1391.3	1065.9	332.14	-1391.1	1065	228.7	-1240.7	965.92	513.44	-1243.9	971.38	86.537	-1240.7	1120.8	492.85	-1255	1096.2	86.993	-1404.9	1029.6	278.22	-1214.2	662.5	513.33	-1131.6	598.97	514.21	-1197.4	574.62	503.35	-1145.9	688.49	521.25	-1175.4	515.33	506.74	-1139.4	506.45	362.77	-1319.7	450.46	506.29	-1341	348.3	467.32	-1375.1	409.9	489.35	-1289.2	394.3	490.38	-1531.5	290.95	438.37	-1497.4	256.43	354.71	-1582.7	324.16	365.4	-1593.2	294.23	335.83	-1612.7	305.98	396.34	-1539.4	144.07	486.74	-1494	107.94	374.68	NaN	NaN	NaN	-1214.9	684.28	109.96	-1116.9	631.89	109.77	-1187.1	599.05	128.92	-1154.3	718.34	90.437	-1118.9	526.75	122.47	-1097.3	535.26	261.17	-1176.2	394.06	100.86	-1122.1	299.86	127.2	-1181.5	315.44	103.15	-1114.7	376.3	119.4	-1221.8	106.73	136.96	-1194.7	115.51	234.7	-1291.4	73.593	182.09	-1281.8	48.74	214.99	-1283	47.757	152.93	-1074.9	39.896	115.45	-1048.4	45.024	237.95	-986.69	58.222	185.31	-1308.4	1590.6	283.47	-1403.4	1284	309.88
49	0.2	-1094	1268.4	262.71	-1197.2	1526.3	441.12	-1236.6	1538.9	110.89	-1195.7	1851.5	265.28	-1154.9	1015.7	433.44	-1140.9	1018.1	168.32	-1385.3	1067.2	331.9	-1385.5	1066.4	228.46	-1234.8	967.63	513.5	-1238.2	972.23	86.521	-1235.2	1122.3	492.83	-1248.9	1097.2	86.816	-1399.1	1030.9	278.04	-1204.6	664.34	513.22	-1121.3	601.77	514.18	-1186.7	576.7	503.19	-1136.7	691.14	521.27	-1164.2	517.7	506.71	-1128	509.19	362.54	-1308.3	452.47	505.5	-1329	350.21	466.69	-1363.5	411.65	488.52	-1277.4	396.39	489.83	-1519.1	291.94	437.16	-1485.1	257.57	353.7	-1570.6	324.7	364.1	-1580.8	294.59	334.52	-1600.3	306.26	395.06	-1525.6	145.18	485.77	-1480	109.26	373.76	NaN	NaN	NaN	-1211.7	685.09	109.81	-1114.1	631.89	109.56	-1184.6	599.6	128.69	-1150.8	718.67	90.266	-1117.1	526.66	122.21	-1095.1	534.9	260.87	-1175.3	394.09	100.69	-1121.4	299.68	126.93	-1180.8	315.52	103.06	-1113.9	376.14	119.1	-1221.7	106.87	136.95	-1194.5	115.66	234.62	-1291.3	73.734	182.09	-1281.7	48.893	215	-1283	47.896	152.94	-1074.9	39.886	115.4	-1048.4	45.057	237.89	-986.67	58.179	185.26	-1302.3	1591.8	282.71	-1397.6	1285.3	309.3
50	0.20417	-1088.1	1269.8	262.85	-1191.6	1527.7	440.66	-1230.6	1540	110.34	-1189.9	1852.7	264.26	-1149	1017.3	433.34	-1135.4	1018.9	168.33	-1379.3	1068.5	331.68	-1379.8	1067.8	228.22	-1228.8	969.39	513.57	-1232.5	973.09	86.519	-1229.7	1123.8	492.8	-1242.6	1098.3	86.667	-1393.3	1032.3	277.88	-1195.1	666.24	513.11	-1111.1	604.61	514.09	-1176.2	578.85	503.02	-1127.6	693.83	521.24	-1153.1	520.13	506.64	-1116.8	511.99	362.3	-1297	454.36	504.72	-1317	351.97	466.06	-1352	413.21	487.7	-1265.7	398.4	489.27	-1506.6	292.51	436	-1472.5	258.43	352.69	-1558.4	324.79	362.91	-1568.2	294.52	333.29	-1587.8	306.01	393.87	-1511.4	145.86	484.73	-1465.6	110.34	372.73	NaN	NaN	NaN	-1208.6	685.91	109.68	-1111.4	631.89	109.35	-1182.1	600.17	128.48	-1147.5	719	90.097	-1115.4	526.6	121.95	-1093	534.57	260.57	-1174.5	394.14	100.54	-1120.9	299.53	126.67	-1180.2	315.63	102.98	-1113.1	376.02	118.8	-1221.6	107.02	136.94	-1194.4	115.82	234.54	-1291.3	73.885	182.1	-1281.7	49.056	215.01	-1283	48.046	152.95	-1074.8	39.873	115.36	-1048.3	45.085	237.84	-986.65	58.129	185.21	-1296.1	1593	281.99	-1391.7	1286.6	308.72
51	0.20833	-1082.1	1271.2	262.99	-1186	1529.1	440.22	-1224.5	1541.1	109.83	-1184.1	1853.9	263.28	-1143	1019	433.23	-1129.7	1019.8	168.34	-1373.2	1069.8	331.47	-1374.1	1069.2	228	-1222.8	971.18	513.64	-1226.9	973.94	86.531	-1224.1	1125.3	492.75	-1236.3	1099.4	86.545	-1387.5	1033.7	277.74	-1185.6	668.19	513	-1101	607.49	513.94	-1165.7	581.04	502.84	-1118.5	696.55	521.17	-1142.2	522.6	506.53	-1105.6	514.86	362.03	-1285.7	456.11	503.94	-1305	353.58	465.43	-1340.4	414.57	486.9	-1253.9	400.31	488.71	-1493.8	292.67	434.88	-1459.6	259.02	351.69	-1546.1	324.43	361.82	-1555.5	294.02	332.13	-1575.1	305.24	392.78	-1496.7	146.1	483.64	-1450.8	111.16	371.59	NaN	NaN	NaN	-1205.5	686.75	109.58	-1108.7	631.9	109.14	-1179.8	600.76	128.29	-1144.3	719.34	89.93	-1113.8	526.55	121.69	-1090.9	534.26	260.28	-1173.7	394.21	100.4	-1120.3	299.41	126.4	-1179.6	315.75	102.91	-1112.3	375.92	118.49	-1221.5	107.17	136.93	-1194.2	115.97	234.46	-1291.2	74.047	182.12	-1281.6	49.228	215.02	-1282.9	48.207	152.97	-1074.8	39.856	115.31	-1048.3	45.108	237.78	-986.63	58.074	185.16	-1290.1	1594.2	281.31	-1385.9	1287.9	308.16
52	0.2125	-1076.2	1272.6	263.14	-1180.4	1530.6	439.81	-1218.5	1542.2	109.34	-1178.3	1855.1	262.37	-1137.1	1020.7	433.12	-1123.9	1020.7	168.34	-1367.2	1071.2	331.29	-1368.4	1070.6	227.8	-1216.9	973.01	513.72	-1221.2	974.79	86.555	-1218.6	1127	492.69	-1230	1100.5	86.451	-1381.7	1035.1	277.62	-1176.2	670.17	512.9	-1090.9	610.39	513.72	-1155.3	583.28	502.66	-1109.4	699.29	521.05	-1131.3	525.09	506.38	-1094.6	517.77	361.74	-1274.4	457.69	503.18	-1292.9	355.03	464.8	-1328.9	415.71	486.13	-1242.1	402.11	488.16	-1481	292.42	433.81	-1446.5	259.34	350.68	-1533.8	323.65	360.82	-1542.7	293.09	331.03	-1562.3	303.97	391.79	-1481.8	145.93	482.5	-1435.5	111.74	370.36	NaN	NaN	NaN	-1202.6	687.61	109.5	-1106.2	631.91	108.94	-1177.5	601.37	128.12	-1141.2	719.68	89.765	-1112.2	526.53	121.43	-1088.9	533.97	260	-1173	394.3	100.28	-1119.8	299.31	126.13	-1179.1	315.89	102.84	-1111.6	375.84	118.19	-1221.4	107.33	136.93	-1194.1	116.13	234.39	-1291.2	74.22	182.15	-1281.6	49.409	215.04	-1282.9	48.38	153	-1074.8	39.837	115.27	-1048.3	45.126	237.72	-986.6	58.015	185.11	-1284	1595.4	280.65	-1380	1289.3	307.62
53	0.21667	-1070.2	1274.1	263.28	-1174.9	1532	439.41	-1212.5	1543.4	108.88	-1172.5	1856.3	261.52	-1131.1	1022.4	433.01	-1118	1021.7	168.33	-1361.2	1072.6	331.12	-1362.7	1072	227.62	-1210.9	974.85	513.79	-1215.6	975.64	86.591	-1213	1128.7	492.59	-1223.7	1101.7	86.384	-1375.9	1036.5	277.52	-1166.9	672.18	512.8	-1080.9	613.3	513.44	-1145	585.54	502.48	-1100.4	702.04	520.9	-1120.6	527.6	506.19	-1083.6	520.72	361.43	-1263.2	459.11	502.44	-1280.8	356.31	464.15	-1317.4	416.64	485.38	-1230.3	403.8	487.6	-1467.9	291.78	432.79	-1433.1	259.39	349.68	-1521.4	322.44	359.91	-1529.8	291.74	330	-1549.3	302.22	390.88	-1466.4	145.37	481.33	-1420	112.08	369.05	NaN	NaN	NaN	-1199.7	688.48	109.44	-1103.7	631.94	108.73	-1175.2	601.99	127.97	-1138.1	720.03	89.603	-1110.7	526.53	121.17	-1087	533.7	259.72	-1172.4	394.4	100.16	-1119.4	299.25	125.86	-1178.7	316.05	102.77	-1111	375.79	117.89	-1221.3	107.49	136.93	-1193.9	116.29	234.33	-1291.1	74.403	182.19	-1281.5	49.599	215.07	-1282.9	48.564	153.04	-1074.7	39.815	115.23	-1048.3	45.14	237.66	-986.58	57.951	185.06	-1278.1	1596.7	280.03	-1374.2	1290.6	307.08
54	0.22083	-1064.2	1275.6	263.43	-1169.3	1533.5	439.03	-1206.4	1544.5	108.44	-1166.7	1857.5	260.72	-1125.1	1024.1	432.89	-1112	1022.7	168.31	-1355.2	1074	330.99	-1357	1073.4	227.47	-1205	976.7	513.86	-1210.1	976.49	86.639	-1207.3	1130.4	492.47	-1217.3	1102.9	86.343	-1370.1	1037.9	277.45	-1157.6	674.2	512.72	-1071	616.22	513.11	-1134.8	587.82	502.29	-1091.5	704.78	520.71	-1109.9	530.11	505.95	-1072.9	523.7	361.1	-1252	460.34	501.73	-1268.6	357.41	463.5	-1305.9	417.32	484.67	-1218.4	405.35	487.05	-1454.7	290.76	431.8	-1419.4	259.18	348.68	-1508.9	320.81	359.08	-1516.7	289.99	329.02	-1536.2	300	390.05	-1450.8	144.44	480.14	-1404	112.18	367.69	NaN	NaN	NaN	-1196.9	689.35	109.4	-1101.3	631.97	108.54	-1173.1	602.63	127.83	-1135.2	720.38	89.445	-1109.3	526.54	120.92	-1085.1	533.45	259.45	-1171.8	394.51	100.06	-1118.9	299.2	125.6	-1178.3	316.23	102.7	-1110.4	375.76	117.6	-1221.2	107.66	136.94	-1193.8	116.45	234.27	-1291	74.596	182.24	-1281.5	49.797	215.1	-1282.8	48.758	153.08	-1074.7	39.792	115.19	-1048.2	45.15	237.6	-986.55	57.885	185.01	-1272.1	1597.9	279.43	-1368.3	1291.9	306.56
55	0.225	-1058.2	1277	263.57	-1163.7	1534.9	438.67	-1200.4	1545.6	108.03	-1160.8	1858.6	259.98	-1119.1	1025.8	432.78	-1106	1023.7	168.28	-1349.2	1075.4	330.87	-1351.2	1074.7	227.35	-1199	978.56	513.94	-1204.5	977.32	86.698	-1201.7	1132.1	492.31	-1210.9	1104.2	86.326	-1364.3	1039.3	277.4	-1148.3	676.23	512.64	-1061.2	619.13	512.72	-1124.6	590.11	502.11	-1082.6	707.52	520.48	-1099.3	532.61	505.66	-1062.2	526.69	360.75	-1240.8	461.39	501.06	-1256.3	358.33	462.84	-1294.3	417.77	483.97	-1206.6	406.79	486.5	-1441.4	289.38	430.86	-1405.6	258.7	347.68	-1496.2	318.77	358.32	-1503.5	287.83	328.11	-1522.9	297.34	389.29	-1434.8	143.17	478.94	-1387.8	112.05	366.29	NaN	NaN	NaN	-1194.1	690.24	109.37	-1098.9	632.01	108.34	-1170.9	603.27	127.71	-1132.3	720.73	89.291	-1107.9	526.57	120.66	-1083.3	533.2	259.19	-1171.2	394.64	99.964	-1118.5	299.18	125.33	-1177.9	316.41	102.64	-1109.8	375.74	117.31	-1221.2	107.84	136.95	-1193.6	116.62	234.22	-1290.9	74.798	182.29	-1281.4	50.002	215.14	-1282.8	48.961	153.12	-1074.7	39.768	115.15	-1048.2	45.157	237.54	-986.51	57.816	184.97	-1266.2	1599	278.86	-1362.4	1293.3	306.05
56	0.22917	-1052.2	1278.5	263.7	-1158.2	1536.3	438.33	-1194.4	1546.8	107.65	-1155	1859.7	259.29	-1113.1	1027.5	432.66	-1099.9	1024.7	168.24	-1343.3	1076.8	330.79	-1345.5	1076.1	227.25	-1193	980.41	514.01	-1199	978.16	86.766	-1196	1133.9	492.12	-1204.5	1105.4	86.332	-1358.5	1040.7	277.38	-1139.2	678.25	512.57	-1051.5	622.02	512.28	-1114.6	592.4	501.92	-1073.7	710.23	520.23	-1088.9	535.09	505.33	-1051.7	529.69	360.38	-1229.6	462.26	500.41	-1244	359.07	462.16	-1282.7	417.99	483.3	-1194.6	408.09	485.95	-1427.9	287.65	429.96	-1391.4	257.97	346.69	-1483.5	316.33	357.63	-1490.2	285.28	327.25	-1509.4	294.24	388.6	-1418.6	141.59	477.74	-1371.2	111.7	364.87	NaN	NaN	NaN	-1191.4	691.13	109.37	-1096.7	632.05	108.15	-1168.9	603.93	127.61	-1129.4	721.08	89.144	-1106.6	526.62	120.41	-1081.5	532.96	258.94	-1170.7	394.77	99.874	-1118.2	299.19	125.08	-1177.5	316.61	102.58	-1109.3	375.74	117.03	-1221.1	108.01	136.96	-1193.4	116.78	234.18	-1290.9	75.009	182.35	-1281.3	50.214	215.18	-1282.7	49.173	153.17	-1074.7	39.742	115.12	-1048.2	45.163	237.48	-986.48	57.747	184.92	-1260.2	1600.2	278.31	-1356.5	1294.6	305.56
57	0.23333	-1046.3	1280	263.83	-1152.7	1537.7	438	-1188.4	1547.9	107.28	-1149.1	1860.8	258.66	-1107.1	1029.2	432.54	-1093.8	1025.7	168.2	-1337.3	1078.2	330.74	-1339.7	1077.4	227.18	-1187	982.24	514.08	-1193.5	978.98	86.845	-1190.3	1135.7	491.9	-1198.1	1106.7	86.359	-1352.6	1042.1	277.38	-1130.1	680.26	512.52	-1041.8	624.89	511.79	-1104.6	594.68	501.72	-1065	712.91	519.94	-1078.5	537.54	504.95	-1041.3	532.68	359.98	-1218.5	462.95	499.79	-1231.6	359.65	461.48	-1271	417.97	482.65	-1182.7	409.26	485.41	-1414.2	285.58	429.1	-1377.1	256.98	345.71	-1470.6	313.51	356.99	-1476.7	282.34	326.43	-1495.8	290.74	387.96	-1402	139.73	476.55	-1354.3	111.14	363.45	NaN	NaN	NaN	-1188.7	692.02	109.39	-1094.4	632.09	107.96	-1166.9	604.6	127.52	-1126.6	721.43	89.006	-1105.3	526.67	120.16	-1079.9	532.73	258.69	-1170.2	394.92	99.788	-1117.8	299.2	124.83	-1177.2	316.81	102.52	-1108.8	375.75	116.75	-1221	108.19	136.98	-1193.3	116.95	234.13	-1290.8	75.227	182.41	-1281.3	50.431	215.22	-1282.7	49.391	153.22	-1074.7	39.717	115.08	-1048.1	45.167	237.42	-986.44	57.677	184.88	-1254.3	1601.3	277.79	-1350.6	1295.9	305.08
